<svg width="424" height="444" viewBox="0 0 424 444" fill="none" xmlns="http://www.w3.org/2000/svg">
<path d="M378.952 242.898C378.952 335.748 304.252 403.528 208.952 403.528C113.652 403.528 38.9519 335.748 38.9519 242.898C38.9519 150.047 113.652 73.5282 208.952 73.5282C304.252 73.5282 378.952 150.047 378.952 242.898Z" stroke="#E63946" stroke-width="70"/>
<path d="M213.19 5.00117C223.204 5.0271 233.334 5.60455 241.482 6.92908C245.541 7.58888 249.293 8.46253 252.354 9.63151C255.094 10.6778 258.225 12.3023 260.001 15.07L260.168 15.3419L260.324 15.6174C261.088 17.0133 261.515 18.6379 261.793 20.0988C262.109 21.7552 262.315 23.6736 262.444 25.7546C262.703 29.9219 262.674 35.1151 262.436 40.9081C261.96 52.5164 260.631 66.9374 258.905 81.2143C257.177 95.4989 255.039 109.738 252.93 120.995C251.877 126.616 250.819 131.558 249.809 135.417C249.304 137.343 248.794 139.065 248.282 140.498C247.81 141.819 247.201 143.29 246.386 144.434C244.81 146.646 242.368 148.062 240.127 149.018C237.767 150.024 234.981 150.79 232.027 151.366C226.105 152.521 218.927 153.026 211.827 152.902C204.731 152.779 197.472 152.024 191.404 150.542C188.373 149.801 185.499 148.845 183.044 147.614C180.65 146.413 178.26 144.753 176.687 142.4C175.876 141.186 175.243 139.648 174.728 138.162C174.185 136.595 173.655 134.732 173.14 132.661C172.107 128.514 171.068 123.276 170.066 117.375C168.06 105.557 166.157 90.8096 164.723 76.2336C163.29 61.6686 162.315 47.162 162.19 35.8434C162.127 30.2042 162.272 25.2146 162.71 21.3555C162.928 19.4381 163.236 17.6356 163.688 16.107C164.07 14.82 164.819 12.7449 166.549 11.3371L166.756 11.1726C167.808 10.3702 169.031 9.81523 170.106 9.4106C171.322 8.9524 172.713 8.55495 174.197 8.20511C177.168 7.50471 180.839 6.91946 184.903 6.44808C193.049 5.50325 203.155 4.97519 213.19 5.00117Z" fill="#E63946" stroke="#E63946" stroke-width="10"/>
<path d="M390.981 409.59C384.097 416.863 376.732 423.841 370.181 428.865C366.918 431.368 363.71 433.501 360.76 434.928C358.12 436.205 354.791 437.37 351.559 436.766L351.246 436.701L350.938 436.626C349.398 436.225 347.923 435.423 346.669 434.624C345.247 433.717 343.709 432.552 342.105 431.22C338.894 428.551 335.133 424.97 331.079 420.825C322.954 412.521 313.366 401.667 304.156 390.622C294.941 379.571 286.041 368.253 279.291 359C275.921 354.38 273.048 350.222 270.932 346.841C269.876 345.153 268.972 343.601 268.28 342.246C267.642 340.996 266.988 339.544 266.714 338.167C266.184 335.503 266.827 332.755 267.668 330.467C268.553 328.06 269.905 325.507 271.511 322.961C274.73 317.858 279.284 312.286 284.241 307.202C289.196 302.121 294.722 297.353 299.961 293.952C302.578 292.253 305.244 290.816 307.824 289.873C310.34 288.954 313.186 288.352 315.978 288.82C317.418 289.062 318.971 289.655 320.406 290.299C321.92 290.978 323.638 291.869 325.5 292.914C329.227 295.005 333.752 297.84 338.736 301.156C348.714 307.798 360.755 316.522 372.35 325.471C383.936 334.413 395.165 343.649 403.491 351.317C407.639 355.137 411.172 358.664 413.682 361.628C414.928 363.101 416.029 364.561 416.832 365.939C417.508 367.098 418.505 369.066 418.343 371.291L418.321 371.555C418.184 372.87 417.75 374.142 417.308 375.201C416.807 376.401 416.143 377.686 415.38 379.006C413.854 381.649 411.763 384.723 409.32 388.005C404.423 394.583 397.879 402.302 390.981 409.59Z" fill="#E63946" stroke="#E63946" stroke-width="10"/>
<path d="M36.4771 414.963C44.1111 421.443 52.1914 427.58 59.2493 431.861C62.7651 433.994 66.1864 435.765 69.2739 436.863C72.0372 437.846 75.473 438.642 78.6205 437.69L78.9244 437.592L79.2223 437.484C80.7094 436.918 82.0889 435.959 83.2487 435.028C84.5636 433.973 85.9659 432.647 87.415 431.148C90.317 428.146 93.6657 424.177 97.2456 419.616C104.419 410.477 112.769 398.645 120.723 386.664C128.682 374.677 136.298 362.458 142.002 352.525C144.849 347.566 147.253 343.12 148.989 339.529C149.855 337.737 150.585 336.095 151.126 334.673C151.624 333.361 152.116 331.847 152.239 330.448C152.476 327.742 151.537 325.08 150.453 322.898C149.311 320.601 147.689 318.21 145.816 315.854C142.061 311.132 136.928 306.088 131.448 301.573C125.97 297.061 119.958 292.923 114.38 290.111C111.593 288.707 108.787 287.569 106.12 286.912C103.519 286.272 100.624 285.983 97.9001 286.752C96.4945 287.148 95.0151 287.907 93.659 288.703C92.228 289.543 90.6164 290.616 88.8796 291.857C85.4017 294.341 81.2116 297.651 76.6188 301.49C67.4221 309.177 56.4009 319.16 45.8484 329.316C35.3037 339.465 25.1456 349.867 17.7028 358.396C13.9946 362.645 10.8664 366.535 8.69438 369.754C7.61522 371.354 6.67928 372.925 6.03136 374.382C5.48585 375.608 4.70884 377.673 5.11103 379.867L5.16196 380.127C5.44089 381.419 6.01136 382.636 6.56595 383.641C7.19397 384.779 7.99374 385.984 8.8955 387.214C10.7009 389.675 13.1134 392.503 15.8989 395.5C21.4823 401.507 28.8269 408.469 36.4771 414.963Z" fill="#E63946" stroke="#E63946" stroke-width="10"/>
</svg>
